# xmcd
#
# Track frame offsets:
#	150
#	17936
#	28441
#	42450
#	56251
#	72701
#	95818
#	114331
#	132135
#	154401
#	166110
#
# Disc length: 2429 seconds
#
# Revision: 1
# Processed by: cddbd v1.5.2PL0 Copyright (c) Steve Scherf et al.
# Submitted via: audiograbber 1.83.01
#
DISCID=9c097b0b
DTITLE=cajun - DOWN BY THE BAYOU
DYEAR=2016
DGENRE=Country
TTITLE0=CAJUN - 01 - Les Felmmes d'Enfer
TTITLE1=CAJUN - 02 - Chanson de Mardi Gras
TTITLE2=CAJUN - 03 - Diggy Diggy Lo
TTITLE3=CAJUN - 04 - Allons á Lafayette
TTITLE4=CAJUN - 05 - Chicot Two Step
TTITLE5=CAJUN - 06 - Black Girl
TTITLE6=CAJUN - 07 - Born on the Bayou
TTITLE7=CAJUN - 08 - Jambalaya
TTITLE8=CAJUN - 09 - Cotton Fields
TTITLE9=CAJUN - 10 - Keine Ahnung
TTITLE10=CAJUN - 11 - Zydeco Dance
EXTD=
EXTT0=
EXTT1=
EXTT2=
EXTT3=
EXTT4=
EXTT5=
EXTT6=
EXTT7=
EXTT8=
EXTT9=
EXTT10=
PLAYORDER=
